<svg xmlns="http://www.w3.org/2000/svg" xmlns:rdkit="http://www.rdkit.org/xml" xmlns:xlink="http://www.w3.org/1999/xlink" version="1.1" baseProfile="full" xml:space="preserve" width="1125px" height="375px" viewBox="0 0 1125 375">
<!-- END OF HEADER -->
<rect style="opacity:1.0;fill:#FFFFFF;stroke:none" width="1125.0" height="375.0" x="0.0" y="0.0"> </rect>
<path class="bond-0 atom-0 atom-1" d="M 315.0,180.0 L 302.2,201.6" style="fill:none;fill-rule:evenodd;stroke:#000000;stroke-width:2.0px;stroke-linecap:butt;stroke-linejoin:miter;stroke-opacity:1"/>
<path class="bond-1 atom-1 atom-2" d="M 302.2,201.6 L 289.4,223.3" style="fill:none;fill-rule:evenodd;stroke:#000000;stroke-width:2.0px;stroke-linecap:butt;stroke-linejoin:miter;stroke-opacity:1"/>
<path class="bond-2 atom-1 atom-3" d="M 302.2,201.6 L 323.9,214.4" style="fill:none;fill-rule:evenodd;stroke:#000000;stroke-width:2.0px;stroke-linecap:butt;stroke-linejoin:miter;stroke-opacity:1"/>
<path class="bond-3 atom-3 atom-4" d="M 322.0,213.3 L 321.9,224.2" style="fill:none;fill-rule:evenodd;stroke:#000000;stroke-width:2.0px;stroke-linecap:butt;stroke-linejoin:miter;stroke-opacity:1"/>
<path class="bond-3 atom-3 atom-4" d="M 321.9,224.2 L 321.8,235.1" style="fill:none;fill-rule:evenodd;stroke:#FF0000;stroke-width:2.0px;stroke-linecap:butt;stroke-linejoin:miter;stroke-opacity:1"/>
<path class="bond-3 atom-3 atom-4" d="M 325.8,213.3 L 325.7,224.2" style="fill:none;fill-rule:evenodd;stroke:#000000;stroke-width:2.0px;stroke-linecap:butt;stroke-linejoin:miter;stroke-opacity:1"/>
<path class="bond-3 atom-3 atom-4" d="M 325.7,224.2 L 325.6,235.1" style="fill:none;fill-rule:evenodd;stroke:#FF0000;stroke-width:2.0px;stroke-linecap:butt;stroke-linejoin:miter;stroke-opacity:1"/>
<path class="bond-4 atom-3 atom-5" d="M 323.9,214.4 L 332.8,209.4" style="fill:none;fill-rule:evenodd;stroke:#000000;stroke-width:2.0px;stroke-linecap:butt;stroke-linejoin:miter;stroke-opacity:1"/>
<path class="bond-4 atom-3 atom-5" d="M 332.8,209.4 L 341.7,204.4" style="fill:none;fill-rule:evenodd;stroke:#FF0000;stroke-width:2.0px;stroke-linecap:butt;stroke-linejoin:miter;stroke-opacity:1"/>
<path class="bond-5 atom-1 atom-6" d="M 302.2,201.6 L 280.6,188.8" style="fill:none;fill-rule:evenodd;stroke:#000000;stroke-width:2.0px;stroke-linecap:butt;stroke-linejoin:miter;stroke-opacity:1"/>
<path class="bond-6 atom-6 atom-7" d="M 280.6,188.8 L 258.7,201.2" style="fill:none;fill-rule:evenodd;stroke:#000000;stroke-width:2.0px;stroke-linecap:butt;stroke-linejoin:miter;stroke-opacity:1"/>
<path class="bond-6 atom-6 atom-7" d="M 276.8,186.6 L 258.7,196.8" style="fill:none;fill-rule:evenodd;stroke:#000000;stroke-width:2.0px;stroke-linecap:butt;stroke-linejoin:miter;stroke-opacity:1"/>
<path class="bond-7 atom-7 atom-8" d="M 258.7,201.2 L 237.0,188.4" style="fill:none;fill-rule:evenodd;stroke:#000000;stroke-width:2.0px;stroke-linecap:butt;stroke-linejoin:miter;stroke-opacity:1"/>
<path class="bond-8 atom-8 atom-9" d="M 237.0,188.4 L 237.3,163.2" style="fill:none;fill-rule:evenodd;stroke:#000000;stroke-width:2.0px;stroke-linecap:butt;stroke-linejoin:miter;stroke-opacity:1"/>
<path class="bond-8 atom-8 atom-9" d="M 240.8,186.2 L 241.0,165.4" style="fill:none;fill-rule:evenodd;stroke:#000000;stroke-width:2.0px;stroke-linecap:butt;stroke-linejoin:miter;stroke-opacity:1"/>
<path class="bond-9 atom-9 atom-10" d="M 237.3,163.2 L 259.2,150.9" style="fill:none;fill-rule:evenodd;stroke:#000000;stroke-width:2.0px;stroke-linecap:butt;stroke-linejoin:miter;stroke-opacity:1"/>
<path class="bond-10 atom-10 atom-11" d="M 259.2,150.9 L 280.9,163.7" style="fill:none;fill-rule:evenodd;stroke:#000000;stroke-width:2.0px;stroke-linecap:butt;stroke-linejoin:miter;stroke-opacity:1"/>
<path class="bond-10 atom-10 atom-11" d="M 259.2,155.2 L 277.1,165.8" style="fill:none;fill-rule:evenodd;stroke:#000000;stroke-width:2.0px;stroke-linecap:butt;stroke-linejoin:miter;stroke-opacity:1"/>
<path class="bond-11 atom-9 atom-12" d="M 237.3,163.2 L 215.7,150.4" style="fill:none;fill-rule:evenodd;stroke:#000000;stroke-width:2.0px;stroke-linecap:butt;stroke-linejoin:miter;stroke-opacity:1"/>
<path class="bond-12 atom-12 atom-13" d="M 215.7,150.4 L 215.9,125.3" style="fill:none;fill-rule:evenodd;stroke:#000000;stroke-width:2.0px;stroke-linecap:butt;stroke-linejoin:miter;stroke-opacity:1"/>
<path class="bond-13 atom-12 atom-14" d="M 215.7,150.4 L 193.7,162.8" style="fill:none;fill-rule:evenodd;stroke:#000000;stroke-width:2.0px;stroke-linecap:butt;stroke-linejoin:miter;stroke-opacity:1"/>
<path class="bond-14 atom-14 atom-15" d="M 193.7,162.8 L 172.1,150.0" style="fill:none;fill-rule:evenodd;stroke:#000000;stroke-width:2.0px;stroke-linecap:butt;stroke-linejoin:miter;stroke-opacity:1"/>
<path class="bond-15 atom-15 atom-16" d="M 172.1,150.0 L 162.9,155.2" style="fill:none;fill-rule:evenodd;stroke:#000000;stroke-width:2.0px;stroke-linecap:butt;stroke-linejoin:miter;stroke-opacity:1"/>
<path class="bond-15 atom-15 atom-16" d="M 162.9,155.2 L 153.7,160.3" style="fill:none;fill-rule:evenodd;stroke:#0000FF;stroke-width:2.0px;stroke-linecap:butt;stroke-linejoin:miter;stroke-opacity:1"/>
<path class="bond-16 atom-16 atom-17" d="M 146.7,160.2 L 137.6,154.9" style="fill:none;fill-rule:evenodd;stroke:#0000FF;stroke-width:2.0px;stroke-linecap:butt;stroke-linejoin:miter;stroke-opacity:1"/>
<path class="bond-16 atom-16 atom-17" d="M 137.6,154.9 L 128.5,149.5" style="fill:none;fill-rule:evenodd;stroke:#000000;stroke-width:2.0px;stroke-linecap:butt;stroke-linejoin:miter;stroke-opacity:1"/>
<path class="bond-17 atom-17 atom-18" d="M 128.5,149.5 L 106.6,161.9" style="fill:none;fill-rule:evenodd;stroke:#000000;stroke-width:2.0px;stroke-linecap:butt;stroke-linejoin:miter;stroke-opacity:1"/>
<path class="bond-18 atom-18 atom-19" d="M 106.6,161.9 L 106.4,187.0" style="fill:none;fill-rule:evenodd;stroke:#000000;stroke-width:2.0px;stroke-linecap:butt;stroke-linejoin:miter;stroke-opacity:1"/>
<path class="bond-19 atom-19 atom-20" d="M 106.4,187.0 L 128.0,199.8" style="fill:none;fill-rule:evenodd;stroke:#000000;stroke-width:2.0px;stroke-linecap:butt;stroke-linejoin:miter;stroke-opacity:1"/>
<path class="bond-20 atom-20 atom-21" d="M 128.0,199.8 L 149.9,187.5" style="fill:none;fill-rule:evenodd;stroke:#000000;stroke-width:2.0px;stroke-linecap:butt;stroke-linejoin:miter;stroke-opacity:1"/>
<path class="bond-21 atom-19 atom-22" d="M 106.4,187.0 L 84.5,199.4" style="fill:none;fill-rule:evenodd;stroke:#000000;stroke-width:2.0px;stroke-linecap:butt;stroke-linejoin:miter;stroke-opacity:1"/>
<path class="bond-22 atom-22 atom-23" d="M 84.5,199.4 L 89.4,208.1" style="fill:none;fill-rule:evenodd;stroke:#000000;stroke-width:2.0px;stroke-linecap:butt;stroke-linejoin:miter;stroke-opacity:1"/>
<path class="bond-22 atom-22 atom-23" d="M 89.4,208.1 L 94.3,216.9" style="fill:none;fill-rule:evenodd;stroke:#FF0000;stroke-width:2.0px;stroke-linecap:butt;stroke-linejoin:miter;stroke-opacity:1"/>
<path class="bond-23 atom-22 atom-24" d="M 84.5,199.4 L 62.6,211.7" style="fill:none;fill-rule:evenodd;stroke:#000000;stroke-width:2.0px;stroke-linecap:butt;stroke-linejoin:miter;stroke-opacity:1"/>
<path class="bond-24 atom-24 atom-25" d="M 62.6,211.7 L 40.9,198.9" style="fill:none;fill-rule:evenodd;stroke:#000000;stroke-width:2.0px;stroke-linecap:butt;stroke-linejoin:miter;stroke-opacity:1"/>
<path class="bond-24 atom-24 atom-25" d="M 58.8,213.9 L 40.9,203.3" style="fill:none;fill-rule:evenodd;stroke:#000000;stroke-width:2.0px;stroke-linecap:butt;stroke-linejoin:miter;stroke-opacity:1"/>
<path class="bond-25 atom-25 atom-26" d="M 40.9,198.9 L 19.0,211.3" style="fill:none;fill-rule:evenodd;stroke:#000000;stroke-width:2.0px;stroke-linecap:butt;stroke-linejoin:miter;stroke-opacity:1"/>
<path class="bond-26 atom-26 atom-27" d="M 19.0,211.3 L 18.8,236.4" style="fill:none;fill-rule:evenodd;stroke:#000000;stroke-width:2.0px;stroke-linecap:butt;stroke-linejoin:miter;stroke-opacity:1"/>
<path class="bond-26 atom-26 atom-27" d="M 22.8,213.5 L 22.5,234.3" style="fill:none;fill-rule:evenodd;stroke:#000000;stroke-width:2.0px;stroke-linecap:butt;stroke-linejoin:miter;stroke-opacity:1"/>
<path class="bond-27 atom-27 atom-28" d="M 18.8,236.4 L 40.4,249.2" style="fill:none;fill-rule:evenodd;stroke:#000000;stroke-width:2.0px;stroke-linecap:butt;stroke-linejoin:miter;stroke-opacity:1"/>
<path class="bond-28 atom-28 atom-29" d="M 40.4,249.2 L 62.3,236.9" style="fill:none;fill-rule:evenodd;stroke:#000000;stroke-width:2.0px;stroke-linecap:butt;stroke-linejoin:miter;stroke-opacity:1"/>
<path class="bond-28 atom-28 atom-29" d="M 40.4,244.9 L 58.6,234.7" style="fill:none;fill-rule:evenodd;stroke:#000000;stroke-width:2.0px;stroke-linecap:butt;stroke-linejoin:miter;stroke-opacity:1"/>
<path class="bond-29 atom-22 atom-30" d="M 84.5,199.4 L 72.1,177.5" style="fill:none;fill-rule:evenodd;stroke:#000000;stroke-width:2.0px;stroke-linecap:butt;stroke-linejoin:miter;stroke-opacity:1"/>
<path class="bond-30 atom-30 atom-31" d="M 72.1,177.5 L 84.9,155.8" style="fill:none;fill-rule:evenodd;stroke:#000000;stroke-width:2.0px;stroke-linecap:butt;stroke-linejoin:miter;stroke-opacity:1"/>
<path class="bond-30 atom-30 atom-31" d="M 70.0,173.7 L 80.6,155.8" style="fill:none;fill-rule:evenodd;stroke:#000000;stroke-width:2.0px;stroke-linecap:butt;stroke-linejoin:miter;stroke-opacity:1"/>
<path class="bond-31 atom-31 atom-32" d="M 84.9,155.8 L 72.6,133.9" style="fill:none;fill-rule:evenodd;stroke:#000000;stroke-width:2.0px;stroke-linecap:butt;stroke-linejoin:miter;stroke-opacity:1"/>
<path class="bond-32 atom-32 atom-33" d="M 72.6,133.9 L 47.4,133.7" style="fill:none;fill-rule:evenodd;stroke:#000000;stroke-width:2.0px;stroke-linecap:butt;stroke-linejoin:miter;stroke-opacity:1"/>
<path class="bond-32 atom-32 atom-33" d="M 70.4,137.7 L 49.6,137.5" style="fill:none;fill-rule:evenodd;stroke:#000000;stroke-width:2.0px;stroke-linecap:butt;stroke-linejoin:miter;stroke-opacity:1"/>
<path class="bond-33 atom-33 atom-34" d="M 47.4,133.7 L 34.6,155.3" style="fill:none;fill-rule:evenodd;stroke:#000000;stroke-width:2.0px;stroke-linecap:butt;stroke-linejoin:miter;stroke-opacity:1"/>
<path class="bond-34 atom-34 atom-35" d="M 34.6,155.3 L 47.0,177.2" style="fill:none;fill-rule:evenodd;stroke:#000000;stroke-width:2.0px;stroke-linecap:butt;stroke-linejoin:miter;stroke-opacity:1"/>
<path class="bond-34 atom-34 atom-35" d="M 39.0,155.3 L 49.2,173.5" style="fill:none;fill-rule:evenodd;stroke:#000000;stroke-width:2.0px;stroke-linecap:butt;stroke-linejoin:miter;stroke-opacity:1"/>
<path class="bond-35 atom-11 atom-6" d="M 280.9,163.7 L 280.6,188.8" style="fill:none;fill-rule:evenodd;stroke:#000000;stroke-width:2.0px;stroke-linecap:butt;stroke-linejoin:miter;stroke-opacity:1"/>
<path class="bond-36 atom-21 atom-16" d="M 149.9,187.5 L 150.0,177.1" style="fill:none;fill-rule:evenodd;stroke:#000000;stroke-width:2.0px;stroke-linecap:butt;stroke-linejoin:miter;stroke-opacity:1"/>
<path class="bond-36 atom-21 atom-16" d="M 150.0,177.1 L 150.1,166.7" style="fill:none;fill-rule:evenodd;stroke:#0000FF;stroke-width:2.0px;stroke-linecap:butt;stroke-linejoin:miter;stroke-opacity:1"/>
<path class="bond-37 atom-29 atom-24" d="M 62.3,236.9 L 62.6,211.7" style="fill:none;fill-rule:evenodd;stroke:#000000;stroke-width:2.0px;stroke-linecap:butt;stroke-linejoin:miter;stroke-opacity:1"/>
<path class="bond-38 atom-35 atom-30" d="M 47.0,177.2 L 72.1,177.5" style="fill:none;fill-rule:evenodd;stroke:#000000;stroke-width:2.0px;stroke-linecap:butt;stroke-linejoin:miter;stroke-opacity:1"/>
<path d="M 322.8,213.8 L 323.9,214.4 L 324.3,214.2" style="fill:none;stroke:#000000;stroke-width:2.0px;stroke-linecap:butt;stroke-linejoin:miter;stroke-opacity:1;"/>
<path d="M 259.8,200.5 L 258.7,201.2 L 257.6,200.5" style="fill:none;stroke:#000000;stroke-width:2.0px;stroke-linecap:butt;stroke-linejoin:miter;stroke-opacity:1;"/>
<path d="M 238.1,189.0 L 237.0,188.4 L 237.1,187.1" style="fill:none;stroke:#000000;stroke-width:2.0px;stroke-linecap:butt;stroke-linejoin:miter;stroke-opacity:1;"/>
<path d="M 258.1,151.5 L 259.2,150.9 L 260.3,151.5" style="fill:none;stroke:#000000;stroke-width:2.0px;stroke-linecap:butt;stroke-linejoin:miter;stroke-opacity:1;"/>
<path d="M 279.8,163.0 L 280.9,163.7 L 280.8,164.9" style="fill:none;stroke:#000000;stroke-width:2.0px;stroke-linecap:butt;stroke-linejoin:miter;stroke-opacity:1;"/>
<path d="M 194.8,162.2 L 193.7,162.8 L 192.7,162.1" style="fill:none;stroke:#000000;stroke-width:2.0px;stroke-linecap:butt;stroke-linejoin:miter;stroke-opacity:1;"/>
<path d="M 173.2,150.6 L 172.1,150.0 L 171.6,150.2" style="fill:none;stroke:#000000;stroke-width:2.0px;stroke-linecap:butt;stroke-linejoin:miter;stroke-opacity:1;"/>
<path d="M 129.0,149.8 L 128.5,149.5 L 127.4,150.1" style="fill:none;stroke:#000000;stroke-width:2.0px;stroke-linecap:butt;stroke-linejoin:miter;stroke-opacity:1;"/>
<path d="M 107.7,161.3 L 106.6,161.9 L 106.6,163.1" style="fill:none;stroke:#000000;stroke-width:2.0px;stroke-linecap:butt;stroke-linejoin:miter;stroke-opacity:1;"/>
<path d="M 126.9,199.2 L 128.0,199.8 L 129.1,199.2" style="fill:none;stroke:#000000;stroke-width:2.0px;stroke-linecap:butt;stroke-linejoin:miter;stroke-opacity:1;"/>
<path d="M 148.8,188.1 L 149.9,187.5 L 149.9,187.0" style="fill:none;stroke:#000000;stroke-width:2.0px;stroke-linecap:butt;stroke-linejoin:miter;stroke-opacity:1;"/>
<path d="M 42.0,199.6 L 40.9,198.9 L 39.8,199.5" style="fill:none;stroke:#000000;stroke-width:2.0px;stroke-linecap:butt;stroke-linejoin:miter;stroke-opacity:1;"/>
<path d="M 20.1,210.7 L 19.0,211.3 L 19.0,212.5" style="fill:none;stroke:#000000;stroke-width:2.0px;stroke-linecap:butt;stroke-linejoin:miter;stroke-opacity:1;"/>
<path d="M 18.8,235.2 L 18.8,236.4 L 19.8,237.1" style="fill:none;stroke:#000000;stroke-width:2.0px;stroke-linecap:butt;stroke-linejoin:miter;stroke-opacity:1;"/>
<path d="M 39.3,248.6 L 40.4,249.2 L 41.5,248.6" style="fill:none;stroke:#000000;stroke-width:2.0px;stroke-linecap:butt;stroke-linejoin:miter;stroke-opacity:1;"/>
<path d="M 61.2,237.5 L 62.3,236.9 L 62.3,235.6" style="fill:none;stroke:#000000;stroke-width:2.0px;stroke-linecap:butt;stroke-linejoin:miter;stroke-opacity:1;"/>
<path d="M 84.3,156.9 L 84.9,155.8 L 84.3,154.7" style="fill:none;stroke:#000000;stroke-width:2.0px;stroke-linecap:butt;stroke-linejoin:miter;stroke-opacity:1;"/>
<path d="M 73.2,135.0 L 72.6,133.9 L 71.3,133.9" style="fill:none;stroke:#000000;stroke-width:2.0px;stroke-linecap:butt;stroke-linejoin:miter;stroke-opacity:1;"/>
<path d="M 48.7,133.7 L 47.4,133.7 L 46.8,134.7" style="fill:none;stroke:#000000;stroke-width:2.0px;stroke-linecap:butt;stroke-linejoin:miter;stroke-opacity:1;"/>
<path d="M 35.3,154.2 L 34.6,155.3 L 35.2,156.4" style="fill:none;stroke:#000000;stroke-width:2.0px;stroke-linecap:butt;stroke-linejoin:miter;stroke-opacity:1;"/>
<path d="M 46.4,176.1 L 47.0,177.2 L 48.2,177.2" style="fill:none;stroke:#000000;stroke-width:2.0px;stroke-linecap:butt;stroke-linejoin:miter;stroke-opacity:1;"/>
<path class="atom-4" d="M 320.4 239.6 Q 320.4 237.9, 321.2 236.9 Q 322.1 236.0, 323.6 236.0 Q 325.2 236.0, 326.1 236.9 Q 326.9 237.9, 326.9 239.6 Q 326.9 241.3, 326.0 242.3 Q 325.2 243.3, 323.6 243.3 Q 322.1 243.3, 321.2 242.3 Q 320.4 241.3, 320.4 239.6 M 323.6 242.5 Q 324.7 242.5, 325.3 241.7 Q 325.9 241.0, 325.9 239.6 Q 325.9 238.2, 325.3 237.5 Q 324.7 236.8, 323.6 236.8 Q 322.5 236.8, 322.0 237.5 Q 321.4 238.2, 321.4 239.6 Q 321.4 241.0, 322.0 241.7 Q 322.5 242.5, 323.6 242.5 " fill="#FF0000"/>
<path class="atom-5" d="M 342.5 202.1 Q 342.5 200.4, 343.4 199.4 Q 344.2 198.5, 345.8 198.5 Q 347.4 198.5, 348.2 199.4 Q 349.1 200.4, 349.1 202.1 Q 349.1 203.8, 348.2 204.8 Q 347.4 205.8, 345.8 205.8 Q 344.2 205.8, 343.4 204.8 Q 342.5 203.8, 342.5 202.1 M 345.8 205.0 Q 346.9 205.0, 347.5 204.2 Q 348.1 203.5, 348.1 202.1 Q 348.1 200.7, 347.5 200.0 Q 346.9 199.3, 345.8 199.3 Q 344.7 199.3, 344.1 200.0 Q 343.5 200.7, 343.5 202.1 Q 343.5 203.5, 344.1 204.2 Q 344.7 205.0, 345.8 205.0 " fill="#FF0000"/>
<path class="atom-5" d="M 350.2 198.5 L 351.1 198.5 L 351.1 201.6 L 354.8 201.6 L 354.8 198.5 L 355.8 198.5 L 355.8 205.7 L 354.8 205.7 L 354.8 202.4 L 351.1 202.4 L 351.1 205.7 L 350.2 205.7 L 350.2 198.5 " fill="#FF0000"/>
<path class="atom-16" d="M 148.6 158.8 L 150.9 162.5 Q 151.2 162.9, 151.6 163.6 Q 151.9 164.3, 151.9 164.3 L 151.9 158.8 L 152.9 158.8 L 152.9 165.9 L 151.9 165.9 L 149.4 161.8 Q 149.1 161.3, 148.8 160.7 Q 148.5 160.2, 148.4 160.0 L 148.4 165.9 L 147.5 165.9 L 147.5 158.8 L 148.6 158.8 " fill="#0000FF"/>
<path class="atom-23" d="M 93.6 221.3 Q 93.6 219.6, 94.4 218.6 Q 95.2 217.7, 96.8 217.7 Q 98.4 217.7, 99.2 218.6 Q 100.1 219.6, 100.1 221.3 Q 100.1 223.0, 99.2 224.0 Q 98.4 225.0, 96.8 225.0 Q 95.3 225.0, 94.4 224.0 Q 93.6 223.0, 93.6 221.3 M 96.8 224.2 Q 97.9 224.2, 98.5 223.5 Q 99.1 222.7, 99.1 221.3 Q 99.1 219.9, 98.5 219.2 Q 97.9 218.5, 96.8 218.5 Q 95.7 218.5, 95.1 219.2 Q 94.6 219.9, 94.6 221.3 Q 94.6 222.7, 95.1 223.5 Q 95.7 224.2, 96.8 224.2 " fill="#FF0000"/>
<path class="atom-23" d="M 101.2 217.8 L 102.2 217.8 L 102.2 220.8 L 105.8 220.8 L 105.8 217.8 L 106.8 217.8 L 106.8 224.9 L 105.8 224.9 L 105.8 221.6 L 102.2 221.6 L 102.2 224.9 L 101.2 224.9 L 101.2 217.8 " fill="#FF0000"/>
<path class="bond-0 atom-0 atom-1" d="M 458.0,230.1 L 442.7,210.2" style="fill:none;fill-rule:evenodd;stroke:#000000;stroke-width:2.0px;stroke-linecap:butt;stroke-linejoin:miter;stroke-opacity:1"/>
<path class="bond-1 atom-1 atom-2" d="M 442.7,210.2 L 427.3,190.2" style="fill:none;fill-rule:evenodd;stroke:#000000;stroke-width:2.0px;stroke-linecap:butt;stroke-linejoin:miter;stroke-opacity:1"/>
<path class="bond-2 atom-1 atom-3" d="M 442.7,210.2 L 422.7,225.5" style="fill:none;fill-rule:evenodd;stroke:#000000;stroke-width:2.0px;stroke-linecap:butt;stroke-linejoin:miter;stroke-opacity:1"/>
<path class="bond-3 atom-3 atom-4" d="M 424.5,224.2 L 414.4,220.0" style="fill:none;fill-rule:evenodd;stroke:#000000;stroke-width:2.0px;stroke-linecap:butt;stroke-linejoin:miter;stroke-opacity:1"/>
<path class="bond-3 atom-3 atom-4" d="M 414.4,220.0 L 404.3,215.9" style="fill:none;fill-rule:evenodd;stroke:#FF0000;stroke-width:2.0px;stroke-linecap:butt;stroke-linejoin:miter;stroke-opacity:1"/>
<path class="bond-3 atom-3 atom-4" d="M 423.0,227.7 L 412.9,223.5" style="fill:none;fill-rule:evenodd;stroke:#000000;stroke-width:2.0px;stroke-linecap:butt;stroke-linejoin:miter;stroke-opacity:1"/>
<path class="bond-3 atom-3 atom-4" d="M 412.9,223.5 L 402.9,219.3" style="fill:none;fill-rule:evenodd;stroke:#FF0000;stroke-width:2.0px;stroke-linecap:butt;stroke-linejoin:miter;stroke-opacity:1"/>
<path class="bond-4 atom-3 atom-5" d="M 422.7,225.5 L 424.1,235.8" style="fill:none;fill-rule:evenodd;stroke:#000000;stroke-width:2.0px;stroke-linecap:butt;stroke-linejoin:miter;stroke-opacity:1"/>
<path class="bond-4 atom-3 atom-5" d="M 424.1,235.8 L 425.4,246.0" style="fill:none;fill-rule:evenodd;stroke:#FF0000;stroke-width:2.0px;stroke-linecap:butt;stroke-linejoin:miter;stroke-opacity:1"/>
<path class="bond-5 atom-1 atom-6" d="M 442.7,210.2 L 462.6,194.9" style="fill:none;fill-rule:evenodd;stroke:#000000;stroke-width:2.0px;stroke-linecap:butt;stroke-linejoin:miter;stroke-opacity:1"/>
<path class="bond-6 atom-6 atom-7" d="M 462.6,194.9 L 459.3,169.9" style="fill:none;fill-rule:evenodd;stroke:#000000;stroke-width:2.0px;stroke-linecap:butt;stroke-linejoin:miter;stroke-opacity:1"/>
<path class="bond-6 atom-6 atom-7" d="M 466.1,192.2 L 463.3,171.6" style="fill:none;fill-rule:evenodd;stroke:#000000;stroke-width:2.0px;stroke-linecap:butt;stroke-linejoin:miter;stroke-opacity:1"/>
<path class="bond-7 atom-7 atom-8" d="M 459.3,169.9 L 479.2,154.6" style="fill:none;fill-rule:evenodd;stroke:#000000;stroke-width:2.0px;stroke-linecap:butt;stroke-linejoin:miter;stroke-opacity:1"/>
<path class="bond-8 atom-8 atom-9" d="M 479.2,154.6 L 502.5,164.2" style="fill:none;fill-rule:evenodd;stroke:#000000;stroke-width:2.0px;stroke-linecap:butt;stroke-linejoin:miter;stroke-opacity:1"/>
<path class="bond-8 atom-8 atom-9" d="M 479.8,158.9 L 499.0,166.9" style="fill:none;fill-rule:evenodd;stroke:#000000;stroke-width:2.0px;stroke-linecap:butt;stroke-linejoin:miter;stroke-opacity:1"/>
<path class="bond-9 atom-9 atom-10" d="M 502.5,164.2 L 505.8,189.1" style="fill:none;fill-rule:evenodd;stroke:#000000;stroke-width:2.0px;stroke-linecap:butt;stroke-linejoin:miter;stroke-opacity:1"/>
<path class="bond-10 atom-10 atom-11" d="M 505.8,189.1 L 485.8,204.5" style="fill:none;fill-rule:evenodd;stroke:#000000;stroke-width:2.0px;stroke-linecap:butt;stroke-linejoin:miter;stroke-opacity:1"/>
<path class="bond-10 atom-10 atom-11" d="M 501.8,187.5 L 485.3,200.1" style="fill:none;fill-rule:evenodd;stroke:#000000;stroke-width:2.0px;stroke-linecap:butt;stroke-linejoin:miter;stroke-opacity:1"/>
<path class="bond-11 atom-9 atom-12" d="M 502.5,164.2 L 522.4,148.9" style="fill:none;fill-rule:evenodd;stroke:#000000;stroke-width:2.0px;stroke-linecap:butt;stroke-linejoin:miter;stroke-opacity:1"/>
<path class="bond-12 atom-12 atom-13" d="M 522.4,148.9 L 521.1,138.7" style="fill:none;fill-rule:evenodd;stroke:#000000;stroke-width:2.0px;stroke-linecap:butt;stroke-linejoin:miter;stroke-opacity:1"/>
<path class="bond-12 atom-12 atom-13" d="M 521.1,138.7 L 519.7,128.5" style="fill:none;fill-rule:evenodd;stroke:#FF0000;stroke-width:2.0px;stroke-linecap:butt;stroke-linejoin:miter;stroke-opacity:1"/>
<path class="bond-13 atom-12 atom-14" d="M 522.4,148.9 L 545.7,158.5" style="fill:none;fill-rule:evenodd;stroke:#000000;stroke-width:2.0px;stroke-linecap:butt;stroke-linejoin:miter;stroke-opacity:1"/>
<path class="bond-14 atom-14 atom-15" d="M 545.7,158.5 L 565.6,143.2" style="fill:none;fill-rule:evenodd;stroke:#000000;stroke-width:2.0px;stroke-linecap:butt;stroke-linejoin:miter;stroke-opacity:1"/>
<path class="bond-15 atom-15 atom-16" d="M 565.6,143.2 L 575.5,147.2" style="fill:none;fill-rule:evenodd;stroke:#000000;stroke-width:2.0px;stroke-linecap:butt;stroke-linejoin:miter;stroke-opacity:1"/>
<path class="bond-15 atom-15 atom-16" d="M 575.5,147.2 L 585.3,151.3" style="fill:none;fill-rule:evenodd;stroke:#0000FF;stroke-width:2.0px;stroke-linecap:butt;stroke-linejoin:miter;stroke-opacity:1"/>
<path class="bond-16 atom-16 atom-17" d="M 589.4,157.2 L 590.8,167.4" style="fill:none;fill-rule:evenodd;stroke:#0000FF;stroke-width:2.0px;stroke-linecap:butt;stroke-linejoin:miter;stroke-opacity:1"/>
<path class="bond-16 atom-16 atom-17" d="M 590.8,167.4 L 592.1,177.7" style="fill:none;fill-rule:evenodd;stroke:#000000;stroke-width:2.0px;stroke-linecap:butt;stroke-linejoin:miter;stroke-opacity:1"/>
<path class="bond-17 atom-17 atom-18" d="M 592.1,177.7 L 615.4,187.3" style="fill:none;fill-rule:evenodd;stroke:#000000;stroke-width:2.0px;stroke-linecap:butt;stroke-linejoin:miter;stroke-opacity:1"/>
<path class="bond-18 atom-18 atom-19" d="M 615.4,187.3 L 635.3,172.0" style="fill:none;fill-rule:evenodd;stroke:#000000;stroke-width:2.0px;stroke-linecap:butt;stroke-linejoin:miter;stroke-opacity:1"/>
<path class="bond-19 atom-19 atom-20" d="M 635.3,172.0 L 632.0,147.1" style="fill:none;fill-rule:evenodd;stroke:#000000;stroke-width:2.0px;stroke-linecap:butt;stroke-linejoin:miter;stroke-opacity:1"/>
<path class="bond-20 atom-20 atom-21" d="M 632.0,147.1 L 608.8,137.4" style="fill:none;fill-rule:evenodd;stroke:#000000;stroke-width:2.0px;stroke-linecap:butt;stroke-linejoin:miter;stroke-opacity:1"/>
<path class="bond-21 atom-19 atom-22" d="M 635.3,172.0 L 658.6,181.6" style="fill:none;fill-rule:evenodd;stroke:#000000;stroke-width:2.0px;stroke-linecap:butt;stroke-linejoin:miter;stroke-opacity:1"/>
<path class="bond-22 atom-22 atom-23" d="M 658.6,181.6 L 662.4,172.2" style="fill:none;fill-rule:evenodd;stroke:#000000;stroke-width:2.0px;stroke-linecap:butt;stroke-linejoin:miter;stroke-opacity:1"/>
<path class="bond-22 atom-22 atom-23" d="M 662.4,172.2 L 666.3,162.9" style="fill:none;fill-rule:evenodd;stroke:#FF0000;stroke-width:2.0px;stroke-linecap:butt;stroke-linejoin:miter;stroke-opacity:1"/>
<path class="bond-23 atom-22 atom-24" d="M 658.6,181.6 L 681.8,191.2" style="fill:none;fill-rule:evenodd;stroke:#000000;stroke-width:2.0px;stroke-linecap:butt;stroke-linejoin:miter;stroke-opacity:1"/>
<path class="bond-24 atom-24 atom-25" d="M 681.8,191.2 L 685.1,216.1" style="fill:none;fill-rule:evenodd;stroke:#000000;stroke-width:2.0px;stroke-linecap:butt;stroke-linejoin:miter;stroke-opacity:1"/>
<path class="bond-24 atom-24 atom-25" d="M 685.8,192.9 L 688.6,213.5" style="fill:none;fill-rule:evenodd;stroke:#000000;stroke-width:2.0px;stroke-linecap:butt;stroke-linejoin:miter;stroke-opacity:1"/>
<path class="bond-25 atom-25 atom-26" d="M 685.1,216.1 L 708.3,225.7" style="fill:none;fill-rule:evenodd;stroke:#000000;stroke-width:2.0px;stroke-linecap:butt;stroke-linejoin:miter;stroke-opacity:1"/>
<path class="bond-26 atom-26 atom-27" d="M 708.3,225.7 L 728.3,210.4" style="fill:none;fill-rule:evenodd;stroke:#000000;stroke-width:2.0px;stroke-linecap:butt;stroke-linejoin:miter;stroke-opacity:1"/>
<path class="bond-26 atom-26 atom-27" d="M 707.8,221.4 L 724.3,208.7" style="fill:none;fill-rule:evenodd;stroke:#000000;stroke-width:2.0px;stroke-linecap:butt;stroke-linejoin:miter;stroke-opacity:1"/>
<path class="bond-27 atom-27 atom-28" d="M 728.3,210.4 L 725.0,185.5" style="fill:none;fill-rule:evenodd;stroke:#000000;stroke-width:2.0px;stroke-linecap:butt;stroke-linejoin:miter;stroke-opacity:1"/>
<path class="bond-28 atom-28 atom-29" d="M 725.0,185.5 L 701.7,175.9" style="fill:none;fill-rule:evenodd;stroke:#000000;stroke-width:2.0px;stroke-linecap:butt;stroke-linejoin:miter;stroke-opacity:1"/>
<path class="bond-28 atom-28 atom-29" d="M 721.5,188.1 L 702.3,180.2" style="fill:none;fill-rule:evenodd;stroke:#000000;stroke-width:2.0px;stroke-linecap:butt;stroke-linejoin:miter;stroke-opacity:1"/>
<path class="bond-29 atom-22 atom-30" d="M 658.6,181.6 L 649.0,204.8" style="fill:none;fill-rule:evenodd;stroke:#000000;stroke-width:2.0px;stroke-linecap:butt;stroke-linejoin:miter;stroke-opacity:1"/>
<path class="bond-30 atom-30 atom-31" d="M 649.0,204.8 L 624.0,208.1" style="fill:none;fill-rule:evenodd;stroke:#000000;stroke-width:2.0px;stroke-linecap:butt;stroke-linejoin:miter;stroke-opacity:1"/>
<path class="bond-30 atom-30 atom-31" d="M 647.3,208.9 L 626.7,211.6" style="fill:none;fill-rule:evenodd;stroke:#000000;stroke-width:2.0px;stroke-linecap:butt;stroke-linejoin:miter;stroke-opacity:1"/>
<path class="bond-31 atom-31 atom-32" d="M 624.0,208.1 L 614.4,231.4" style="fill:none;fill-rule:evenodd;stroke:#000000;stroke-width:2.0px;stroke-linecap:butt;stroke-linejoin:miter;stroke-opacity:1"/>
<path class="bond-32 atom-32 atom-33" d="M 614.4,231.4 L 629.7,251.3" style="fill:none;fill-rule:evenodd;stroke:#000000;stroke-width:2.0px;stroke-linecap:butt;stroke-linejoin:miter;stroke-opacity:1"/>
<path class="bond-32 atom-32 atom-33" d="M 618.7,230.8 L 631.4,247.3" style="fill:none;fill-rule:evenodd;stroke:#000000;stroke-width:2.0px;stroke-linecap:butt;stroke-linejoin:miter;stroke-opacity:1"/>
<path class="bond-33 atom-33 atom-34" d="M 629.7,251.3 L 654.7,248.0" style="fill:none;fill-rule:evenodd;stroke:#000000;stroke-width:2.0px;stroke-linecap:butt;stroke-linejoin:miter;stroke-opacity:1"/>
<path class="bond-34 atom-34 atom-35" d="M 654.7,248.0 L 664.3,224.8" style="fill:none;fill-rule:evenodd;stroke:#000000;stroke-width:2.0px;stroke-linecap:butt;stroke-linejoin:miter;stroke-opacity:1"/>
<path class="bond-34 atom-34 atom-35" d="M 652.0,244.6 L 660.0,225.3" style="fill:none;fill-rule:evenodd;stroke:#000000;stroke-width:2.0px;stroke-linecap:butt;stroke-linejoin:miter;stroke-opacity:1"/>
<path class="bond-35 atom-11 atom-6" d="M 485.8,204.5 L 462.6,194.9" style="fill:none;fill-rule:evenodd;stroke:#000000;stroke-width:2.0px;stroke-linecap:butt;stroke-linejoin:miter;stroke-opacity:1"/>
<path class="bond-36 atom-21 atom-16" d="M 608.8,137.4 L 600.6,143.8" style="fill:none;fill-rule:evenodd;stroke:#000000;stroke-width:2.0px;stroke-linecap:butt;stroke-linejoin:miter;stroke-opacity:1"/>
<path class="bond-36 atom-21 atom-16" d="M 600.6,143.8 L 592.4,150.1" style="fill:none;fill-rule:evenodd;stroke:#0000FF;stroke-width:2.0px;stroke-linecap:butt;stroke-linejoin:miter;stroke-opacity:1"/>
<path class="bond-37 atom-29 atom-24" d="M 701.7,175.9 L 681.8,191.2" style="fill:none;fill-rule:evenodd;stroke:#000000;stroke-width:2.0px;stroke-linecap:butt;stroke-linejoin:miter;stroke-opacity:1"/>
<path class="bond-38 atom-35 atom-30" d="M 664.3,224.8 L 649.0,204.8" style="fill:none;fill-rule:evenodd;stroke:#000000;stroke-width:2.0px;stroke-linecap:butt;stroke-linejoin:miter;stroke-opacity:1"/>
<path d="M 423.7,224.7 L 422.7,225.5 L 422.8,226.0" style="fill:none;stroke:#000000;stroke-width:2.0px;stroke-linecap:butt;stroke-linejoin:miter;stroke-opacity:1;"/>
<path d="M 459.5,171.2 L 459.3,169.9 L 460.3,169.2" style="fill:none;stroke:#000000;stroke-width:2.0px;stroke-linecap:butt;stroke-linejoin:miter;stroke-opacity:1;"/>
<path d="M 478.2,155.4 L 479.2,154.6 L 480.4,155.1" style="fill:none;stroke:#000000;stroke-width:2.0px;stroke-linecap:butt;stroke-linejoin:miter;stroke-opacity:1;"/>
<path d="M 505.6,187.9 L 505.8,189.1 L 504.8,189.9" style="fill:none;stroke:#000000;stroke-width:2.0px;stroke-linecap:butt;stroke-linejoin:miter;stroke-opacity:1;"/>
<path d="M 486.8,203.7 L 485.8,204.5 L 484.7,204.0" style="fill:none;stroke:#000000;stroke-width:2.0px;stroke-linecap:butt;stroke-linejoin:miter;stroke-opacity:1;"/>
<path d="M 544.5,158.0 L 545.7,158.5 L 546.7,157.7" style="fill:none;stroke:#000000;stroke-width:2.0px;stroke-linecap:butt;stroke-linejoin:miter;stroke-opacity:1;"/>
<path d="M 564.6,143.9 L 565.6,143.2 L 566.1,143.4" style="fill:none;stroke:#000000;stroke-width:2.0px;stroke-linecap:butt;stroke-linejoin:miter;stroke-opacity:1;"/>
<path d="M 592.1,177.2 L 592.1,177.7 L 593.3,178.2" style="fill:none;stroke:#000000;stroke-width:2.0px;stroke-linecap:butt;stroke-linejoin:miter;stroke-opacity:1;"/>
<path d="M 614.2,186.8 L 615.4,187.3 L 616.4,186.5" style="fill:none;stroke:#000000;stroke-width:2.0px;stroke-linecap:butt;stroke-linejoin:miter;stroke-opacity:1;"/>
<path d="M 632.2,148.3 L 632.0,147.1 L 630.9,146.6" style="fill:none;stroke:#000000;stroke-width:2.0px;stroke-linecap:butt;stroke-linejoin:miter;stroke-opacity:1;"/>
<path d="M 609.9,137.9 L 608.8,137.4 L 608.4,137.8" style="fill:none;stroke:#000000;stroke-width:2.0px;stroke-linecap:butt;stroke-linejoin:miter;stroke-opacity:1;"/>
<path d="M 684.9,214.9 L 685.1,216.1 L 686.3,216.6" style="fill:none;stroke:#000000;stroke-width:2.0px;stroke-linecap:butt;stroke-linejoin:miter;stroke-opacity:1;"/>
<path d="M 707.2,225.2 L 708.3,225.7 L 709.3,225.0" style="fill:none;stroke:#000000;stroke-width:2.0px;stroke-linecap:butt;stroke-linejoin:miter;stroke-opacity:1;"/>
<path d="M 727.3,211.2 L 728.3,210.4 L 728.1,209.2" style="fill:none;stroke:#000000;stroke-width:2.0px;stroke-linecap:butt;stroke-linejoin:miter;stroke-opacity:1;"/>
<path d="M 725.2,186.7 L 725.0,185.5 L 723.8,185.0" style="fill:none;stroke:#000000;stroke-width:2.0px;stroke-linecap:butt;stroke-linejoin:miter;stroke-opacity:1;"/>
<path d="M 702.9,176.3 L 701.7,175.9 L 700.7,176.6" style="fill:none;stroke:#000000;stroke-width:2.0px;stroke-linecap:butt;stroke-linejoin:miter;stroke-opacity:1;"/>
<path d="M 625.3,208.0 L 624.0,208.1 L 623.5,209.3" style="fill:none;stroke:#000000;stroke-width:2.0px;stroke-linecap:butt;stroke-linejoin:miter;stroke-opacity:1;"/>
<path d="M 614.9,230.2 L 614.4,231.4 L 615.2,232.4" style="fill:none;stroke:#000000;stroke-width:2.0px;stroke-linecap:butt;stroke-linejoin:miter;stroke-opacity:1;"/>
<path d="M 629.0,250.3 L 629.7,251.3 L 631.0,251.1" style="fill:none;stroke:#000000;stroke-width:2.0px;stroke-linecap:butt;stroke-linejoin:miter;stroke-opacity:1;"/>
<path d="M 653.4,248.2 L 654.7,248.0 L 655.2,246.8" style="fill:none;stroke:#000000;stroke-width:2.0px;stroke-linecap:butt;stroke-linejoin:miter;stroke-opacity:1;"/>
<path d="M 663.8,225.9 L 664.3,224.8 L 663.5,223.8" style="fill:none;stroke:#000000;stroke-width:2.0px;stroke-linecap:butt;stroke-linejoin:miter;stroke-opacity:1;"/>
<path class="atom-4" d="M 396.2 215.9 Q 396.2 214.2, 397.1 213.3 Q 397.9 212.3, 399.5 212.3 Q 401.1 212.3, 401.9 213.3 Q 402.8 214.2, 402.8 215.9 Q 402.8 217.7, 401.9 218.6 Q 401.0 219.6, 399.5 219.6 Q 397.9 219.6, 397.1 218.6 Q 396.2 217.7, 396.2 215.9 M 399.5 218.8 Q 400.6 218.8, 401.2 218.1 Q 401.7 217.3, 401.7 215.9 Q 401.7 214.5, 401.2 213.8 Q 400.6 213.1, 399.5 213.1 Q 398.4 213.1, 397.8 213.8 Q 397.2 214.5, 397.2 215.9 Q 397.2 217.4, 397.8 218.1 Q 398.4 218.8, 399.5 218.8 " fill="#FF0000"/>
<path class="atom-5" d="M 422.8 250.5 Q 422.8 248.7, 423.6 247.8 Q 424.4 246.8, 426.0 246.8 Q 427.6 246.8, 428.4 247.8 Q 429.3 248.7, 429.3 250.5 Q 429.3 252.2, 428.4 253.2 Q 427.6 254.1, 426.0 254.1 Q 424.5 254.1, 423.6 253.2 Q 422.8 252.2, 422.8 250.5 M 426.0 253.3 Q 427.1 253.3, 427.7 252.6 Q 428.3 251.9, 428.3 250.5 Q 428.3 249.1, 427.7 248.4 Q 427.1 247.6, 426.0 247.6 Q 424.9 247.6, 424.3 248.3 Q 423.8 249.0, 423.8 250.5 Q 423.8 251.9, 424.3 252.6 Q 424.9 253.3, 426.0 253.3 " fill="#FF0000"/>
<path class="atom-5" d="M 430.4 246.9 L 431.4 246.9 L 431.4 249.9 L 435.0 249.9 L 435.0 246.9 L 436.0 246.9 L 436.0 254.0 L 435.0 254.0 L 435.0 250.7 L 431.4 250.7 L 431.4 254.0 L 430.4 254.0 L 430.4 246.9 " fill="#FF0000"/>
<path class="atom-13" d="M 515.8 124.0 Q 515.8 122.3, 516.7 121.3 Q 517.5 120.4, 519.1 120.4 Q 520.7 120.4, 521.5 121.3 Q 522.4 122.3, 522.4 124.0 Q 522.4 125.7, 521.5 126.7 Q 520.7 127.7, 519.1 127.7 Q 517.5 127.7, 516.7 126.7 Q 515.8 125.7, 515.8 124.0 M 519.1 126.9 Q 520.2 126.9, 520.8 126.1 Q 521.4 125.4, 521.4 124.0 Q 521.4 122.6, 520.8 121.9 Q 520.2 121.2, 519.1 121.2 Q 518.0 121.2, 517.4 121.9 Q 516.9 122.6, 516.9 124.0 Q 516.9 125.4, 517.4 126.1 Q 518.0 126.9, 519.1 126.9 " fill="#FF0000"/>
<path class="atom-13" d="M 523.5 120.4 L 524.5 120.4 L 524.5 123.5 L 528.1 123.5 L 528.1 120.4 L 529.1 120.4 L 529.1 127.6 L 528.1 127.6 L 528.1 124.3 L 524.5 124.3 L 524.5 127.6 L 523.5 127.6 L 523.5 120.4 " fill="#FF0000"/>
<path class="atom-16" d="M 587.3 149.2 L 589.6 153.0 Q 589.8 153.4, 590.2 154.0 Q 590.6 154.7, 590.6 154.7 L 590.6 149.2 L 591.5 149.2 L 591.5 156.3 L 590.6 156.3 L 588.1 152.2 Q 587.8 151.7, 587.5 151.2 Q 587.2 150.6, 587.1 150.4 L 587.1 156.3 L 586.1 156.3 L 586.1 149.2 L 587.3 149.2 " fill="#0000FF"/>
<path class="atom-23" d="M 664.9 158.4 Q 664.9 156.7, 665.7 155.7 Q 666.6 154.7, 668.2 154.7 Q 669.7 154.7, 670.6 155.7 Q 671.4 156.7, 671.4 158.4 Q 671.4 160.1, 670.6 161.1 Q 669.7 162.1, 668.2 162.1 Q 666.6 162.1, 665.7 161.1 Q 664.9 160.1, 664.9 158.4 M 668.2 161.3 Q 669.3 161.3, 669.8 160.5 Q 670.4 159.8, 670.4 158.4 Q 670.4 157.0, 669.8 156.3 Q 669.3 155.5, 668.2 155.5 Q 667.1 155.5, 666.5 156.3 Q 665.9 157.0, 665.9 158.4 Q 665.9 159.8, 666.5 160.5 Q 667.1 161.3, 668.2 161.3 " fill="#FF0000"/>
<path class="atom-23" d="M 672.5 154.8 L 673.5 154.8 L 673.5 157.9 L 677.2 157.9 L 677.2 154.8 L 678.1 154.8 L 678.1 161.9 L 677.2 161.9 L 677.2 158.7 L 673.5 158.7 L 673.5 161.9 L 672.5 161.9 L 672.5 154.8 " fill="#FF0000"/>
</svg>